<?xml version="1.0" encoding="UTF-8" standalone="no"?>
<!-- Created with Inkscape (http://www.inkscape.org/) -->

<svg
   xmlns:dc="http://purl.org/dc/elements/1.1/"
   xmlns:cc="http://creativecommons.org/ns#"
   xmlns:rdf="http://www.w3.org/1999/02/22-rdf-syntax-ns#"
   xmlns:svg="http://www.w3.org/2000/svg"
   xmlns="http://www.w3.org/2000/svg"
   xmlns:sodipodi="http://sodipodi.sourceforge.net/DTD/sodipodi-0.dtd"
   xmlns:inkscape="http://www.inkscape.org/namespaces/inkscape"
   id="svg4159"
   version="1.1"
   inkscape:version="0.48.4 r9939"
   width="120"
   height="171"
   sodipodi:docname="enemy-bluecar.svg">
  <metadata
     id="metadata4165">
    <rdf:RDF>
      <cc:Work
         rdf:about="">
        <dc:format>image/svg+xml</dc:format>
        <dc:type
           rdf:resource="http://purl.org/dc/dcmitype/StillImage" />
        <dc:title></dc:title>
      </cc:Work>
    </rdf:RDF>
  </metadata>
  <defs
     id="defs4163">
    <filter
       id="filter4175"
       inkscape:menu-tooltip="Make the lightest parts of the object progressively transparent"
       inkscape:menu="Transparency utilities"
       inkscape:label="Light eraser"
       height="1"
       width="1"
       y="0"
       x="0"
       color-interpolation-filters="sRGB">
      <feColorMatrix
         id="feColorMatrix4177"
         result="result14"
         type="luminanceToAlpha"
         in="SourceGraphic" />
      <feComposite
         id="feComposite4179"
         in2="result14"
         in="SourceGraphic"
         result="fbSourceGraphic"
         operator="out" />
      <feBlend
         id="feBlend4181"
         in2="fbSourceGraphic"
         mode="normal"
         result="result15" />
    </filter>
    <filter
       id="filter5082"
       inkscape:label="Motion blur, vertical"
       inkscape:menu="Blurs"
       inkscape:menu-tooltip="Blur as if the object flies vertically; adjust Standard Deviation to vary force"
       color-interpolation-filters="sRGB">
      <feColorMatrix
         id="feColorMatrix5084"
         values="1 0 0 0 0 0 1 0 0 0 0 0 1 0 0 0 0 0 1 0 "
         result="result7" />
      <feGaussianBlur
         id="feGaussianBlur5086"
         result="result6"
         stdDeviation="5" />
      <feComposite
         id="feComposite5088"
         in2="result7"
         operator="atop"
         in="result6"
         result="result91" />
      <feComposite
         id="feComposite5090"
         in2="result91"
         operator="in"
         result="fbSourceGraphic" />
      <feColorMatrix
         result="fbSourceGraphicAlpha"
         in="fbSourceGraphic"
         values="0 0 0 -1 0 0 0 0 -1 0 0 0 0 -1 0 0 0 0 1 0"
         id="feColorMatrix5092" />
      <feGaussianBlur
         id="feGaussianBlur5094"
         in="fbSourceGraphic"
         stdDeviation="5 0.01"
         result="fbSourceGraphic" />
      <feColorMatrix
         result="fbSourceGraphicAlpha"
         in="fbSourceGraphic"
         values="0 0 0 -1 0 0 0 0 -1 0 0 0 0 -1 0 0 0 0 1 0"
         id="feColorMatrix5096" />
      <feGaussianBlur
         id="feGaussianBlur5098"
         in="fbSourceGraphic"
         stdDeviation="0.01 5" />
    </filter>
    <filter
       inkscape:collect="always"
       id="filter5112"
       x="-0.28842072"
       width="1.5768414"
       y="-1.1225022"
       height="3.2450045">
      <feGaussianBlur
         inkscape:collect="always"
         stdDeviation="12.360888"
         id="feGaussianBlur5114" />
    </filter>
  </defs>
  <sodipodi:namedview
     pagecolor="#ffffff"
     bordercolor="#666666"
     borderopacity="1"
     objecttolerance="10"
     gridtolerance="10"
     guidetolerance="10"
     inkscape:pageopacity="0"
     inkscape:pageshadow="2"
     inkscape:window-width="1366"
     inkscape:window-height="705"
     id="namedview4161"
     showgrid="false"
     inkscape:zoom="1.4"
     inkscape:cx="258.08549"
     inkscape:cy="86.51469"
     inkscape:window-x="-8"
     inkscape:window-y="-8"
     inkscape:window-maximized="1"
     inkscape:current-layer="svg4159" />
  <path
     sodipodi:type="arc"
     style="fill:#2e3436;fill-opacity:1;stroke:#feffff;stroke-width:0;stroke-miterlimit:4;stroke-opacity:1;stroke-dasharray:none;filter:url(#filter5112)"
     id="path5068"
     sodipodi:cx="60"
     sodipodi:cy="134.92857"
     sodipodi:rx="51.42857"
     sodipodi:ry="13.214286"
     d="m 111.42857,134.92857 a 51.42857,13.214286 0 1 1 -102.8571398,0 51.42857,13.214286 0 1 1 102.8571398,0 z"
     transform="matrix(0.68952284,0,0,0.55857304,15.771487,56.775396)" />
  <g
     id="g4887"
     transform="matrix(0.19307906,0,0,0.18394904,-15.790599,50.972522)">
    <path
       inkscape:connector-curvature="0"
       id="path4781-5"
       d="m 113.50809,351.8048 c 7.21723,0 13.06635,5.96795 13.06635,13.329 0,7.36106 -5.84912,13.329 -13.06635,13.329 -1.09456,0 -2.16273,-0.13047 -3.1788,-0.38902 0.30481,-0.87542 0.48052,-1.82818 0.48052,-2.8255 l 0,-21.15031 c 0,-0.67721 -0.0954,-1.31931 -0.24026,-1.9451 0.94302,-0.22061 1.9299,-0.34807 2.93854,-0.34807 z"
       clip-path="none"
       style="opacity:0.98999999;fill:#2e3436;fill-opacity:1;stroke:#feffff;stroke-width:0;stroke-miterlimit:4;stroke-opacity:1;stroke-dasharray:none" />
    <path
       inkscape:connector-curvature="0"
       id="path4781"
       d="m 673.05183,313.09045 c -12.20354,0 -22.09375,9.10874 -22.09375,20.34375 0,11.23501 9.89021,20.34375 22.09375,20.34375 1.85079,0 3.65695,-0.19913 5.375,-0.59375 -0.5154,-1.33614 -0.8125,-2.79032 -0.8125,-4.3125 l 0,-32.28125 c 0,-1.03361 0.16131,-2.01362 0.40625,-2.96875 -1.59454,-0.33672 -3.26325,-0.53125 -4.96875,-0.53125 z"
       clip-path="none"
       style="opacity:0.98999999;fill:#2e3436;fill-opacity:1;stroke:#feffff;stroke-width:0;stroke-miterlimit:4;stroke-opacity:1;stroke-dasharray:none" />
    <path
       transform="matrix(0.74479166,0,0,0.87622545,4.9999927,-97.401919)"
       d="m 369.23078,576.22375 c 0,39.39374 -37.57051,71.32868 -83.91608,71.32868 -46.34558,0 -83.91609,-31.93494 -83.91609,-71.32868 0,-39.39373 37.57051,-71.32867 83.91609,-71.32867 46.34557,0 83.91608,31.93494 83.91608,71.32867 z"
       sodipodi:ry="71.328674"
       sodipodi:rx="83.916084"
       sodipodi:cy="576.22375"
       sodipodi:cx="285.3147"
       id="path4737"
       style="opacity:0.98999999;fill:#2e3436;fill-opacity:1;stroke:#feffff;stroke-width:0;stroke-miterlimit:4;stroke-opacity:1;stroke-dasharray:none"
       sodipodi:type="arc" />
    <path
       transform="matrix(0.74479166,0,0,0.87622545,355.5944,-100.40192)"
       d="m 369.23078,576.22375 c 0,39.39374 -37.57051,71.32868 -83.91608,71.32868 -46.34558,0 -83.91609,-31.93494 -83.91609,-71.32868 0,-39.39373 37.57051,-71.32867 83.91609,-71.32867 46.34557,0 83.91608,31.93494 83.91608,71.32867 z"
       sodipodi:ry="71.328674"
       sodipodi:rx="83.916084"
       sodipodi:cy="576.22375"
       sodipodi:cx="285.3147"
       id="path4737-4"
       style="opacity:0.98999999;fill:#2e3436;fill-opacity:1;stroke:#feffff;stroke-width:0;stroke-miterlimit:4;stroke-opacity:1;stroke-dasharray:none"
       sodipodi:type="arc" />
    <path
       clip-path="none"
       inkscape:connector-curvature="0"
       id="path4227"
       d="m 272.98292,426.48077 c 0.36192,-1.46073 0.0954,-2.27607 -0.75991,-2.32431 -8.49006,-0.4789 -11.77666,-4.45324 -12.34287,-14.92569 -0.16355,-3.025 -0.77609,-6.7375 -1.36119,-8.25 -0.58511,-1.5125 -0.84431,-2.75 -0.57601,-2.75 0.2683,0 -1.04599,-3.0375 -2.92066,-6.75 -3.14442,-6.22708 -11.54098,-16.01336 -13.34387,-15.55242 -0.42503,0.10866 -1.89779,-0.84862 -3.27279,-2.12729 -2.71385,-2.52373 -12.36446,-6.08111 -13.90843,-5.12688 -0.52436,0.32407 -1.19161,0.20374 -1.48278,-0.26739 -0.73251,-1.18522 -12.76492,-0.46745 -16.25272,0.96953 -1.57084,0.64719 -4.20607,1.36333 -5.85607,1.59143 -1.65,0.22811 -3.929,1.2806 -5.06445,2.33888 -1.13545,1.05828 -2.50082,1.92414 -3.03416,1.92414 -3.68167,0 -17.29013,19.32778 -16.89811,24 0.0692,0.825 -0.38916,2.625 -1.01862,4 -0.62946,1.375 -1.08412,4.65552 -1.01037,7.29006 0.0798,2.84875 -0.38999,5.22502 -1.15908,5.8633 -0.71125,0.59029 -1.08701,1.40685 -0.83502,1.81459 0.25199,0.40773 -0.65664,1.78863 -2.01917,3.06867 -2.07218,1.94671 -3.41643,2.29364 -8.21918,2.12128 -6.68232,-0.23982 -15.84094,-0.36958 -22.24184,-0.31511 -2.475,0.0211 -12.7217,-0.0475 -22.77045,-0.15225 l -18.270457,-0.19054 0.60027,-3.5 c 1.339217,-7.80873 2.356977,-10.2957 3.774727,-9.22382 1.95395,1.47728 31.70535,0.86077 35.2467,-0.73038 3.60616,-1.62028 5.54095,-5.42527 5.93401,-11.66994 0.61676,-9.79854 -4.15971,-13.58302 -16.83058,-13.33515 -17.21738,0.33681 -21.99734,0.0415 -20.89171,-1.29071 0.57057,-0.6875 1.08838,-1.475 1.15069,-1.75 0.89748,-3.96133 1.42276,-4.7968 2.70622,-4.30429 0.79879,0.30652 2.47533,-0.40373 3.72565,-1.57834 1.25032,-1.17462 2.51753,-1.89143 2.81604,-1.59293 0.63532,0.63533 6.80889,-6.16506 6.80889,-7.50022 0,-0.4984 -0.43035,-1.17215 -0.95633,-1.49723 -0.52598,-0.32507 -0.69404,-1.27453 -0.37348,-2.1099 0.67967,-1.7712 -2.92703,-5.96037 -6.92019,-8.03778 -1.5125,-0.78687 -2.75,-1.8938 -2.75,-2.45985 0,-1.93358 3.84134,-9.4659 5.67239,-11.12276 3.78182,-3.42203 11.51895,-5.89264 18.52316,-5.91478 5.98721,-0.0189 6.80445,-0.24747 6.80445,-1.90292 0,-2.06327 1.31601,-7.12232 5.94607,-22.85813 1.67966,-5.70852 3.05393,-11.19446 3.05393,-12.19098 0,-0.99652 0.39089,-2.05344 0.86865,-2.34871 0.47775,-0.29527 1.2158,-2.45933 1.6401,-4.80902 1.0182,-5.63863 0.89101,-5.1713 3.74818,-13.77216 1.3703,-4.125 2.81165,-9.28445 3.203,-11.46544 0.39134,-2.181 1.29376,-5.106 2.00536,-6.5 0.71161,-1.39401 1.59924,-4.10956 1.97251,-6.03456 0.37327,-1.925 1.07853,-4.4 1.56723,-5.5 0.48871,-1.1 1.59384,-5.56627 2.45584,-9.92504 0.86201,-4.35877 2.23595,-9.2654 3.05321,-10.90363 0.81725,-1.63823 1.48592,-4.16947 1.48592,-5.62497 0,-1.4555 0.54,-3.18636 1.2,-3.84636 0.66,-0.66 0.90496,-1.2 0.54436,-1.2 -0.3606,0 -0.0206,-1.8 0.75564,-4 0.77621,-2.2 1.23048,-4 1.0095,-4 -1.565,0 7.42853,-20.70038 11.92187,-27.44055 3.3143,-4.97155 14.62469,-16.50735 17.56863,-17.91875 3.14337,-1.50701 6.06035,-3.38535 8.04109,-5.17788 1.13017,-1.0228 2.59577,-1.95307 3.25688,-2.06727 0.66112,-0.11421 4.68953,-1.81357 8.95203,-3.77635 4.2625,-1.96279 7.75,-3.32851 7.75,-3.03494 0,0.29358 0.52054,0.21206 1.15675,-0.18114 0.63621,-0.3932 3.22371,-0.88276 5.75,-1.08791 2.52629,-0.20515 6.15152,-0.8765 8.05607,-1.49189 1.90456,-0.6154 10.45456,-1.225 19,-1.35469 8.54545,-0.12968 15.76218,-0.32605 16.03718,-0.43636 0.275,-0.11032 3.425,-0.13295 7,-0.0503 3.575,0.0827 6.95,0.11689 7.5,0.076 4.55596,-0.33836 112.17952,-0.65423 112.77415,-0.33098 0.42578,0.23146 4.32978,0.58583 8.67554,0.78749 8.03968,0.37307 15.20844,1.1905 18.22042,2.07763 0.91857,0.27054 2.71857,0.69268 4,0.93808 4.77614,0.91466 13.38035,3.83382 14.82989,5.03136 0.825,0.68157 3.075,1.88981 5,2.68499 5.41783,2.23797 17.3453,13.39046 23.26504,21.7534 1.75194,2.475 3.21549,4.725 3.25234,5 0.0368,0.275 0.99218,2.54024 2.12296,5.03386 1.13079,2.49363 2.42692,6.31863 2.88029,8.5 0.92878,4.46878 1.12366,5.25473 1.47937,5.96614 0.1375,0.275 0.3625,0.95 0.5,1.5 0.1375,0.55 0.30625,1.225 0.375,1.5 0.0688,0.275 0.0934,0.6125 0.0547,0.75 -0.0387,0.1375 0.42355,1.54891 1.02713,3.13646 0.60359,1.58755 1.35542,4.5098 1.67074,6.49389 0.31533,1.9841 1.13139,4.73519 1.81348,6.11355 0.68208,1.37835 1.81424,5.8811 2.51591,10.0061 0.70166,4.125 1.72849,8.0625 2.28184,8.75 0.55335,0.6875 0.71443,1.25 0.35796,1.25 -0.35646,0 -0.0367,1.2375 0.71068,2.75 0.74733,1.5125 1.95852,5.45 2.69152,8.75 0.73301,3.3 1.58295,6.45 1.88877,7 0.56456,1.01535 0.6768,1.44289 1.31263,5 0.19663,1.1 0.67609,2.50999 1.06547,3.13331 0.38938,0.62332 0.98052,2.8483 1.31365,4.94439 0.33312,2.0961 1.42497,6.53611 2.42633,9.86669 1.7586,5.84925 2.97817,10.97917 3.10377,13.05561 0.13262,2.19243 2.29547,3.47333 5.75322,3.40725 2.00046,-0.0382 6.5622,0.18873 10.1372,0.50438 3.575,0.31565 13.01556,0.8393 20.97902,1.16367 7.96347,0.32436 14.76856,0.7687 15.12243,0.9874 0.35388,0.21871 8.68832,0.65994 18.52098,0.98052 9.83266,0.32058 19.60385,0.75293 21.71374,0.96079 2.1099,0.20785 11.1099,0.65544 20,0.99465 21.25458,0.81097 25.11759,1.13863 27.31993,2.31729 1.01415,0.54276 2.1437,0.9187 2.51012,0.83544 1.26636,-0.28776 6.83378,4.41313 6.83378,5.77014 0,0.74891 -1.10914,1.64003 -2.46475,1.98027 -3.40997,0.85584 -7.44282,5.13501 -9.7456,10.34083 -1.77236,4.00671 -1.8142,4.73707 -0.49347,8.61321 0.79371,2.3294 2.73926,5.62467 4.32346,7.32282 2.75002,2.94783 9.38036,7.03021 9.38036,5.77559 0,-0.32841 0.73302,0.13592 1.62894,1.03183 0.89592,0.89592 2.24982,1.39068 3.00868,1.09948 0.75886,-0.2912 2.46598,-0.11647 3.7936,0.38829 1.76674,0.67171 2.73553,0.53015 3.61376,-0.52805 0.65995,-0.79519 1.70731,-1.45137 2.32746,-1.45818 1.55543,-0.0171 5.62756,-6.51042 5.62756,-8.9736 0,-2.88302 1.44888,-2.50672 5.92755,1.53949 2.91673,2.63509 4.19036,4.75875 4.92789,8.21682 0.54703,2.56482 0.81371,4.95597 0.59264,5.31367 -0.22107,0.3577 -0.44658,3.07263 -0.50115,6.03318 -0.0546,2.96055 -0.51215,7.63282 -1.01686,10.38282 -0.50472,2.75 -1.0592,6.90124 -1.23219,9.22499 -0.17298,2.32374 -0.52341,4.43388 -0.77873,4.68919 -1.02974,1.02974 -5.92658,1.38282 -6.49191,0.46809 -0.33291,-0.53866 -1.12773,-0.62004 -1.76627,-0.18083 -1.30149,0.89521 -10.70163,0.90567 -14.8947,0.0166 -1.50356,-0.31881 -2.94307,-0.24094 -3.19893,0.17304 -0.25586,0.41398 -2.17568,0.57529 -4.26627,0.35846 -2.09059,-0.21683 -4.25107,-0.39423 -4.80107,-0.39423 -0.55,0 -2.71048,0.1774 -4.80107,0.39423 -2.09059,0.21683 -4.02267,0.0357 -4.29351,-0.40254 -0.27084,-0.43822 -2.38536,-0.5878 -4.69893,-0.33239 -9.98969,1.10282 -12.63822,1.1537 -13.53194,0.25998 -0.59842,-0.59842 -1.16754,-0.59491 -1.54109,0.01 -0.32575,0.52707 -2.31671,0.75913 -4.42435,0.51567 -3.30221,-0.38144 -4.27295,0.008 -7.02059,2.81865 -1.75369,1.79371 -3.24778,3.96337 -3.32022,4.82146 -0.32477,3.84739 0.37995,10.65435 1.20609,11.64979 0.49954,0.60192 0.66368,1.33897 0.36474,1.63791 -1.09685,1.09685 8.19535,4.64835 12.56087,4.80079 2.475,0.0864 4.95,0.0807 5.5,-0.0127 1.63195,-0.27711 45.46727,-0.23736 52.20852,0.0473 3.80261,0.1606 5.97034,0.6476 5.59388,1.25672 -0.33806,0.54699 -0.55886,2.47848 -0.49067,4.2922 0.096,2.55282 -0.51148,3.75016 -2.68932,5.30092 -2.69961,1.92229 -4.13283,1.99072 -35.46785,1.69335 -17.96001,-0.17083 -32.65456,-0.0246 -32.65456,0.32459 0,0.90741 -4.06045,0.50995 -7,-0.68521 -2.63946,-1.07314 -6.67223,-5.00875 -6.25159,-6.10096 0.13663,-0.35475 0.0298,-1.99501 -0.23738,-3.64501 -0.26719,-1.65 -0.68082,-5.51034 -0.91918,-8.57853 -0.24668,-3.1751 -1.38233,-7.26803 -2.63596,-9.5 -1.2114,-2.15681 -2.06297,-3.92147 -1.89236,-3.92147 0.1706,0 -0.52801,-1.35 -1.55248,-3 -2.38431,-3.84014 -10.63473,-12.5 -11.90901,-12.5 -0.53522,0 -1.90214,-0.84364 -3.03759,-1.87475 -2.80942,-2.55128 -11.96894,-5.46022 -18.13369,-5.75903 -2.78809,-0.13515 -5.48809,-0.34427 -6,-0.46473 -0.51192,-0.12045 -1.60576,0.0636 -2.43076,0.40908 -0.825,0.34545 -2.625,0.79653 -4,1.0024 -4.97832,0.74538 -14.12586,5.08833 -16.71774,7.93703 -0.87573,0.9625 -2.19749,1.75 -2.93725,1.75 -0.73975,0 -1.34501,0.59656 -1.34501,1.32569 0,0.72912 -1.18059,2.41662 -2.62354,3.75 -1.44295,1.33337 -3.93686,5.23795 -5.54202,8.67684 -2.76453,5.92271 -3.5859,9.48956 -4.31713,18.74747 -0.17377,2.2 -0.56916,5.05796 -0.87866,6.35103 -0.6504,2.7173 -5.57338,7.30734 -6.93489,6.46588 -0.50655,-0.31306 -52.05961,-0.68847 -114.56238,-0.83425 -62.50276,-0.14578 -113.64138,-0.34844 -113.64138,-0.45036 0,-0.68347 -3.59496,-0.68767 -4.01706,-0.005 -0.28875,0.46721 -1.33435,0.6936 -2.32356,0.50309 -0.98921,-0.1905 -3.50169,-0.4931 -5.58329,-0.67244 -3.36458,-0.28988 -3.93856,0.005 -5.17049,2.65784 -0.85545,1.842 -1.17243,2.12286 -0.8283,0.73391 z m -72.16063,-92 c 0.4125,-0.4125 1.0682,-0.75 1.45711,-0.75 0.38891,0 2.54657,-1.45688 4.79481,-3.23752 7.90387,-6.25998 7.96225,-19.54625 0.10634,-24.20272 -1.80121,-1.06764 -3.87354,-2.46932 -4.60517,-3.11485 -0.82977,-0.7321 -3.55231,-1.01295 -7.23631,-0.74648 -6.64955,0.48099 -9.7586,2.63112 -13.03077,9.01173 -3.97764,7.75625 -1.2129,16.33365 6.72386,20.8603 4.72116,2.69267 10.25416,3.71551 11.79013,2.17954 z m -9.73657,-3.96755 c -3.09843,-1.40184 -5.42395,-2.88789 -5.16782,-3.30232 0.25613,-0.41443 -0.20435,-1.3096 -1.02329,-1.98927 -3.07486,-2.55191 -1.20002,-14.53686 2.78176,-17.78236 0.67609,-0.55107 3.12694,-1.56522 5.44634,-2.25365 7.75349,-2.30137 16.9714,3.033 17.36449,10.04876 0.42687,7.61893 -0.0196,9.00159 -4.12633,12.77747 -2.22461,2.0454 -4.13711,3.57479 -4.25,3.39862 -0.11289,-0.17616 -1.37219,0.12337 -2.79844,0.66563 -2.06623,0.78558 -3.73797,0.46799 -8.22671,-1.56288 z m 312.28536,-32.23159 c 1.26703,-0.80859 1.17409,-1.85698 -0.68642,-7.74304 -1.18354,-3.7443 -2.39328,-8.43391 -2.68833,-10.42136 -0.29505,-1.98745 -1.03037,-4.91245 -1.63404,-6.5 -1.21985,-3.20798 -6.60776,-23.37675 -8.11748,-30.38646 -0.53305,-2.475 -1.2326,-5.175 -1.55455,-6 -0.32195,-0.825 -0.66915,-2.43646 -0.77155,-3.58101 -0.1024,-1.14456 -0.54058,-2.65445 -0.97374,-3.35532 -0.43316,-0.70086 -1.00347,-2.91441 -1.26735,-4.91899 -0.26389,-2.00457 -0.91044,-4.1738 -1.43677,-4.82049 -0.52634,-0.6467 -0.85742,-1.7717 -0.73573,-2.5 0.12168,-0.72831 -0.34591,-2.67419 -1.03908,-4.32419 -1.2753,-3.03565 -3.97052,-11.54312 -4.57118,-14.42892 -1.18957,-5.71519 -9.43155,-18.96456 -15.13797,-24.33501 -7.36274,-6.92925 -11.28446,-8.82733 -25.6658,-12.42203 -1.20201,-0.30045 -14.44797,-0.66087 -29.43547,-0.80093 l -27.25,-0.25466 -0.0792,4.12078 c -0.0436,2.26642 -0.20974,31.45827 -0.36925,64.87077 l -0.29003,60.75 2.36925,0.11765 c 1.30309,0.0647 4.28175,0.21381 6.61925,0.33136 2.3375,0.11754 7.625,0.5232 11.75,0.90147 9.4729,0.86868 19.03875,1.4373 35.5,2.11019 7.15,0.29228 14.575,0.76034 16.5,1.04013 1.925,0.27979 8,0.73022 13.5,1.00095 21.01517,1.03445 28.85271,1.51763 29.13099,1.79591 0.76358,0.76358 7.04258,0.57765 8.33447,-0.2468 z m -144.06063,-8.52079 c 1.43823,-0.45661 1.59517,-6.77253 1.59517,-64.19606 l 0,-63.68964 -2.68674,-0.71878 c -1.4777,-0.39533 -2.87825,-0.52726 -3.11234,-0.29318 -0.23408,0.23408 -12.69266,0.47404 -27.68573,0.53324 -33.08809,0.13064 -35.60682,0.35152 -36.54554,3.20481 -0.38533,1.17125 -0.78916,2.35454 -0.89739,2.62954 -0.10823,0.275 -0.74655,3.2 -1.41848,6.5 -0.67194,3.3 -1.65642,6.78139 -2.18774,7.73643 -0.53132,0.95504 -0.96604,2.61598 -0.96604,3.69098 0,1.07501 -0.40342,2.20388 -0.89648,2.50861 -0.49307,0.30473 -1.41601,3.59379 -2.05099,7.30902 -1.2282,7.18618 -3.72597,16.68186 -5.10219,19.39686 -0.45775,0.90305 -1.5109,5.17805 -2.34035,9.5 -0.82944,4.32196 -2.40826,10.44992 -3.50848,13.61771 -1.10022,3.16779 -3.20241,10.59279 -4.67153,16.5 -1.46912,5.90721 -3.04693,11.46105 -3.50624,12.34185 -1.42989,2.74203 -3.94311,16.28004 -3.16373,17.04209 0.40699,0.39793 6.13999,1.00302 12.73999,1.34462 6.6,0.34161 14.025,0.7934 16.5,1.00399 2.475,0.21058 10.125,0.64605 17,0.96771 6.875,0.32165 14.75,0.80852 17.5,1.08193 2.75,0.27341 8.36138,0.73723 12.46974,1.03072 4.10836,0.2935 7.57471,0.63859 7.703,0.76689 0.50212,0.50212 13.7295,0.66769 15.23209,0.19066 z m -120.22042,-7.82667 c 1.02951,-0.64353 3.85031,-8.74103 4.86204,-13.95716 0.18709,-0.96457 0.61619,-2.20038 0.95355,-2.74624 0.33736,-0.54586 0.77751,-1.78167 0.9781,-2.74624 0.20058,-0.96457 1.29427,-4.67876 2.4304,-8.25376 1.13613,-3.575 2.0715,-7.6475 2.0786,-9.05 0.007,-1.4025 0.5529,-3.09 1.2129,-3.75 0.66,-0.66 0.92904,-1.2 0.59787,-1.2 -0.33117,0 0.0642,-2.1375 0.87856,-4.75 0.81439,-2.6125 1.68823,-6.1 1.94188,-7.75 0.25365,-1.65 0.84201,-3.9 1.30746,-5 0.46544,-1.1 1.3118,-3.8 1.88079,-6 0.56899,-2.2 1.73581,-6.7 2.59294,-10 0.85712,-3.3 2.74938,-10.725 4.20502,-16.5 1.45564,-5.775 3.52787,-13.65 4.60497,-17.5 3.3427,-11.94825 4.20516,-11.04239 -10.20949,-10.72325 -6.875,0.15222 -13.28364,0.51882 -14.24142,0.81467 -0.95779,0.29585 -2.95834,0.75858 -4.44568,1.02829 -4.65218,0.8436 -18.48982,8.69632 -22.7443,12.90716 -14.0851,13.94062 -20.88763,26.20433 -25.50074,45.97313 -1.1551,4.95 -2.71832,11.25 -3.47382,14 -1.30138,4.73699 -2.48008,9.12586 -6.17705,23 -0.87933,3.3 -2.2119,8.025 -2.96128,10.5 -0.74937,2.475 -1.64797,5.46286 -1.99689,6.63969 -0.5933,2.0011 -0.19148,2.18076 6.20339,2.77372 8.69557,0.80628 25.32993,1.58654 36.51906,1.71298 4.7747,0.0539 10.1747,0.42258 12,0.81917 3.80885,0.82757 4.85407,0.78865 6.50314,-0.24216 z"
       style="fill:#3465a4" />
    <path
       transform="matrix(1.1253887,0,0,0.79366036,-90.139568,67.244835)"
       d="m 696.50351,332.86713 c 0,13.13124 -5.0094,23.77622 -11.18881,23.77622 -6.17941,0 -11.18881,-10.64498 -11.18881,-23.77622 0,-13.13125 5.0094,-23.77623 11.18881,-23.77623 6.17941,0 11.18881,10.64498 11.18881,23.77623 z"
       sodipodi:ry="23.776224"
       sodipodi:rx="11.188811"
       sodipodi:cy="332.86713"
       sodipodi:cx="685.3147"
       id="path4779"
       style="opacity:0.98999999;fill:#edd400;fill-opacity:1;stroke:#feffff;stroke-width:0;stroke-miterlimit:4;stroke-opacity:1;stroke-dasharray:none"
       sodipodi:type="arc" />
    <rect
       ry="15"
       y="381.37592"
       x="617.51172"
       height="30"
       width="89.477867"
       id="rect4757"
       style="opacity:0.98999999;fill:#2e3436;fill-opacity:1;stroke:#feffff;stroke-width:0;stroke-miterlimit:4;stroke-opacity:1;stroke-dasharray:none" />
    <rect
       ry="15"
       y="382.8042"
       x="85.482521"
       height="30"
       width="60"
       id="rect4757-5"
       style="opacity:0.98999999;fill:#2e3436;fill-opacity:1;stroke:#feffff;stroke-width:0;stroke-miterlimit:4;stroke-opacity:1;stroke-dasharray:none" />
    <path
       transform="matrix(0.46709805,0,0,0.54288297,-210.32828,183.94716)"
       d="m 696.50351,332.86713 c 0,13.13124 -5.0094,23.77622 -11.18881,23.77622 -6.17941,0 -11.18881,-10.64498 -11.18881,-23.77622 0,-13.13125 5.0094,-23.77623 11.18881,-23.77623 6.17941,0 11.18881,10.64498 11.18881,23.77623 z"
       sodipodi:ry="23.776224"
       sodipodi:rx="11.188811"
       sodipodi:cy="332.86713"
       sodipodi:cx="685.3147"
       id="path4779-1"
       style="opacity:0.98999999;fill:#edd400;fill-opacity:1;stroke:#feffff;stroke-width:0;stroke-miterlimit:4;stroke-opacity:1;stroke-dasharray:none"
       sodipodi:type="arc" />
    <path
       transform="matrix(0.29791667,0,0,0.35049018,484.62589,207.371)"
       d="m 369.23078,576.22375 c 0,39.39374 -37.57051,71.32868 -83.91608,71.32868 -46.34558,0 -83.91609,-31.93494 -83.91609,-71.32868 0,-39.39373 37.57051,-71.32867 83.91609,-71.32867 46.34557,0 83.91608,31.93494 83.91608,71.32867 z"
       sodipodi:ry="71.328674"
       sodipodi:rx="83.916084"
       sodipodi:cy="576.22375"
       sodipodi:cx="285.3147"
       id="path4737-4-7"
       style="opacity:0.98999999;fill:#eeeeec;fill-opacity:1;stroke:#feffff;stroke-width:0;stroke-miterlimit:4;stroke-opacity:1;stroke-dasharray:none"
       sodipodi:type="arc" />
    <path
       transform="matrix(0.29791667,0,0,0.35049018,129.27973,209.55243)"
       d="m 369.23078,576.22375 c 0,39.39374 -37.57051,71.32868 -83.91608,71.32868 -46.34558,0 -83.91609,-31.93494 -83.91609,-71.32868 0,-39.39373 37.57051,-71.32867 83.91609,-71.32867 46.34557,0 83.91608,31.93494 83.91608,71.32867 z"
       sodipodi:ry="71.328674"
       sodipodi:rx="83.916084"
       sodipodi:cy="576.22375"
       sodipodi:cx="285.3147"
       id="path4737-4-7-1"
       style="opacity:0.98999999;fill:#eeeeec;fill-opacity:1;stroke:#feffff;stroke-width:0;stroke-miterlimit:4;stroke-opacity:1;stroke-dasharray:none"
       sodipodi:type="arc" />
  </g>
</svg>
